<?xml version="1.0" encoding="UTF-8" standalone="no"?>
<!-- Created with Inkscape (http://www.inkscape.org/) -->

<svg
   xmlns:dc="http://purl.org/dc/elements/1.1/"
   xmlns:cc="http://creativecommons.org/ns#"
   xmlns:rdf="http://www.w3.org/1999/02/22-rdf-syntax-ns#"
   xmlns:svg="http://www.w3.org/2000/svg"
   xmlns="http://www.w3.org/2000/svg"
   xmlns:sodipodi="http://sodipodi.sourceforge.net/DTD/sodipodi-0.dtd"
   xmlns:inkscape="http://www.inkscape.org/namespaces/inkscape"
   width="128"
   height="128"
   viewBox="0 0 33.866666 33.866668"
   version="1.1"
   id="svg8"
   inkscape:version="0.92.2 (5c3e80d, 2017-08-06)"
   sodipodi:docname="datashiftplugin.svg">
  <defs
     id="defs2">
    <clipPath
       id="clipPath98">
      <path
         d="m 3175.4,1839.8 c 20.92,24.68 35.84,55.66 41.66,92.98 -5.8,-37.25 -20.66,-68.2 -41.53,-92.87 -0.04,-0.03 -0.09,-0.08 -0.13,-0.11"
         inkscape:connector-curvature="0"
         id="path100" />
    </clipPath>
    <clipPath
       id="clipPath114">
      <path
         d="m 3217.1,1932.8 c 19.99,128.64 -54.89,140.42 -95.98,231.75 -5.9,13.11 -7.38,25.56 -3.18,36.77 -1.62,-4.35 -2.39,-8.88 -2.39,-13.56 0.01,-7.4 1.97,-15.18 5.58,-23.21 36.39,-80.89 99.29,-99.38 99.3,-191.94 0,-11.94 -1.05,-25.11 -3.33,-39.81"
         inkscape:connector-curvature="0"
         id="path116" />
    </clipPath>
    <clipPath
       id="clipPath178">
      <path
         d="M 0,4505.7 V 0 h 4505.7 v 4505.7 z"
         inkscape:connector-curvature="0"
         id="path180" />
    </clipPath>
    <clipPath
       id="clipPath204">
      <path
         d="M 0,4505.7 V 0 h 4505.7 v 4505.7 z"
         inkscape:connector-curvature="0"
         id="path206" />
    </clipPath>
    <clipPath
       id="clipPath680">
      <path
         d="m 3752.3,753.38 h -13.46 v 12.73 l 13.46,-0.007 v -12.72"
         inkscape:connector-curvature="0"
         id="path682" />
    </clipPath>
    <clipPath
       id="clipPath712">
      <path
         d="m 3711.8,1621 c 1.65,2.4 3.19,5 4.64,7.76 h 0.61 c 1.34,0 2.67,0.06 3.99,0.19 -2.82,-3.21 -5.89,-5.89 -9.24,-7.95 m -582.76,582.77 c 2.06,3.35 4.74,6.42 7.95,9.24 -0.15,-1.52 -0.21,-3.05 -0.19,-4.6 -2.76,-1.45 -5.36,-2.99 -7.76,-4.64"
         inkscape:connector-curvature="0"
         id="path714" />
    </clipPath>
    <clipPath
       id="clipPath1016">
      <path
         d="m 766.11,3738.8 h -12.726 v 13.47 h 12.726 v -13.47"
         inkscape:connector-curvature="0"
         id="path1018" />
    </clipPath>
  </defs>
  <sodipodi:namedview
     id="base"
     pagecolor="#ffffff"
     bordercolor="#666666"
     borderopacity="1.0"
     inkscape:pageopacity="0.0"
     inkscape:pageshadow="2"
     inkscape:zoom="2.8284274"
     inkscape:cx="-50.734467"
     inkscape:cy="85.10262"
     inkscape:document-units="mm"
     inkscape:current-layer="layer1"
     showgrid="false"
     units="px"
     inkscape:window-width="1920"
     inkscape:window-height="1017"
     inkscape:window-x="-8"
     inkscape:window-y="-8"
     inkscape:window-maximized="1" />
  <metadata
     id="metadata5">
    <rdf:RDF>
      <cc:Work
         rdf:about="">
        <dc:format>image/svg+xml</dc:format>
        <dc:type
           rdf:resource="http://purl.org/dc/dcmitype/StillImage" />
        <dc:title />
      </cc:Work>
    </rdf:RDF>
  </metadata>
  <g
     inkscape:label="Layer 1"
     inkscape:groupmode="layer"
     id="layer1"
     transform="translate(0,-263.13332)">
    <text
       xml:space="preserve"
       style="font-style:normal;font-variant:normal;font-weight:bold;font-stretch:normal;font-size:29.87591362px;line-height:1.25;font-family:Arial;-inkscape-font-specification:'Arial Bold';letter-spacing:0px;word-spacing:0px;fill:#3799dd;fill-opacity:1;stroke:none;stroke-width:0.53649068"
       x="8.8619184"
       y="267.67679"
       id="text829"
       transform="scale(0.91748027,1.0899417)"><tspan
         sodipodi:role="line"
         id="tspan827"
         x="8.8619184"
         y="267.67679"
         style="font-style:normal;font-variant:normal;font-weight:bold;font-stretch:normal;font-family:Arial;-inkscape-font-specification:'Arial Bold';fill:#3799dd;fill-opacity:1;stroke-width:0.53649068">?</tspan></text>
    <g
       transform="matrix(0.13305101,0,0,0.13305101,-12.527475,203.45273)"
       inkscape:label="Camada 1"
       id="layer1-8"
       style="fill:#cc2e2e;fill-opacity:1;stroke:none;stroke-width:2.58516145;stroke-miterlimit:4;stroke-dasharray:none;stroke-opacity:1">
      <path
         sodipodi:nodetypes="csccssccssscccccscccccccccccccccsssccccccscc"
         inkscape:connector-curvature="0"
         id="path12083"
         d="m 282.1902,581.98329 c -6.18015,0 -11.19336,5.0132 -11.19336,11.19336 0,3.23746 1.55124,6.06294 3.82226,8.06836 5.23385,6.36976 0.39758,4.75632 -5.67773,5.54883 h -22.05859 c -0.054,0 -0.0979,0.0437 -0.0977,0.0977 l 0.12627,27.89159 c 0.83464,2.35207 2.01529,3.43559 4.75,1.17774 1.95762,-2.21679 4.74129,-4.21216 7.9017,-4.21216 6.03289,0 11.05064,5.01883 11.05064,11.05205 0,6.03289 -4.5992,11.20313 -10.63208,11.20313 -2.53806,0 -4.97754,-0.85257 -6.85151,-2.32623 -4.10493,-3.75064 -5.50522,-2.84482 -6.21875,0.93555 l -0.12627,17.04004 -0.0762,0.0684 0.125,11.959 c 6.88273,-0.0712 15.75239,-0.33985 22.01757,-0.33985 h 0.0625 c 2.59131,0.0837 4.41559,-0.12358 5.52539,-0.44336 2.3291,-0.82199 1.07911,-2.51989 0.0137,-3.74414 -2.64284,-3.00365 -3.45664,-6.35726 -3.15429,-9.17774 0.30225,-2.82072 1.55529,-5.08651 3.10547,-6.50391 2.63491,-2.40913 5.77874,-3.55686 8.82617,-3.61718 3.91795,-0.0775 7.68336,1.64525 10.04492,4.79687 1.91788,2.55979 2.24566,5.64917 1.75391,8.29102 -0.49174,2.64184 -1.68257,4.9422 -3.53516,6.34961 -2.48266,3.28803 0.11662,4.25338 2.76563,4.05664 l 0.084,-0.008 h 23.41796 v -25.71028 c 0.13855,-1.74774 -0.1104,-3.86085 0.54999,-5.29851 1.49966,-3.17261 4.66248,-0.18466 6.17263,1.18132 1.91971,1.50955 4.21648,2.58008 6.8164,2.58008 6.17973,0 11.19336,-5.01322 11.19336,-11.19336 0,-6.18015 -5.01124,-11.19336 -11.1914,-11.19336 -3.23746,0 -6.0649,1.5532 -8.07032,3.82422 -2.84344,2.33637 -4.09177,2.65704 -4.67773,1.76563 -0.81126,-2.32297 -0.64953,-5.06748 -0.79298,-7.24024 v -23.26024 h -21.17182 c -7.5686,-0.45938 -13.8681,1.78956 -5.98828,-6.80078 1.50955,-1.91971 2.58203,-4.21844 2.58203,-6.81836 0,-6.17973 -5.01322,-11.19141 -11.19336,-11.19141 z"
         style="color:#000000;fill:#cc2e2e;fill-opacity:1;stroke:none;stroke-width:2.58516145;stroke-miterlimit:4;stroke-dasharray:none;stroke-opacity:1" />
      <g
         transform="matrix(0.083207,0,0,-0.083207,339.46,467.13)"
         id="g94"
         style="fill:#cc2e2e;fill-opacity:1;stroke:none;stroke-width:31.06903648;stroke-miterlimit:4;stroke-dasharray:none;stroke-opacity:1">
        <g
           clip-path="url(#clipPath98)"
           id="g96"
           style="fill:#cc2e2e;fill-opacity:1;stroke:none;stroke-width:31.06903648;stroke-miterlimit:4;stroke-dasharray:none;stroke-opacity:1">
          <path
             d="m 3175.4,1839.8 c 20.92,24.68 35.84,55.66 41.66,92.98 -5.8,-37.25 -20.66,-68.2 -41.53,-92.87 -0.04,-0.03 -0.09,-0.08 -0.13,-0.11"
             inkscape:connector-curvature="0"
             style="fill:#cc2e2e;fill-opacity:1;stroke:none;stroke-width:31.06903648;stroke-miterlimit:4;stroke-dasharray:none;stroke-opacity:1"
             id="path108" />
        </g>
      </g>
      <g
         transform="matrix(0.083207,0,0,-0.083207,339.46,467.13)"
         id="g110"
         style="fill:#cc2e2e;fill-opacity:1;stroke:none;stroke-width:31.06903648;stroke-miterlimit:4;stroke-dasharray:none;stroke-opacity:1">
        <g
           clip-path="url(#clipPath114)"
           id="g112"
           style="fill:#cc2e2e;fill-opacity:1;stroke:none;stroke-width:31.06903648;stroke-miterlimit:4;stroke-dasharray:none;stroke-opacity:1">
          <path
             d="m 3217.1,1932.8 c 19.99,128.64 -54.89,140.42 -95.98,231.75 -5.9,13.11 -7.38,25.56 -3.18,36.77 -1.62,-4.35 -2.39,-8.88 -2.39,-13.56 0.01,-7.4 1.97,-15.18 5.58,-23.21 36.39,-80.89 99.29,-99.38 99.3,-191.94 0,-11.94 -1.05,-25.11 -3.33,-39.81"
             inkscape:connector-curvature="0"
             style="fill:#cc2e2e;fill-opacity:1;stroke:none;stroke-width:31.06903648;stroke-miterlimit:4;stroke-dasharray:none;stroke-opacity:1"
             id="path124" />
        </g>
      </g>
      <g
         transform="matrix(0.083207,0,0,-0.083207,339.46,467.13)"
         id="g174"
         style="fill:#cc2e2e;fill-opacity:1;stroke:none;stroke-width:31.06903648;stroke-miterlimit:4;stroke-dasharray:none;stroke-opacity:1">
        <g
           clip-path="url(#clipPath178)"
           id="g176"
           style="fill:#cc2e2e;fill-opacity:1;stroke:none;stroke-width:31.06903648;stroke-miterlimit:4;stroke-dasharray:none;stroke-opacity:1" />
      </g>
      <g
         transform="matrix(0.083207,0,0,-0.083207,339.46,467.13)"
         id="g200"
         style="fill:#cc2e2e;fill-opacity:1;stroke:none;stroke-width:31.06903648;stroke-miterlimit:4;stroke-dasharray:none;stroke-opacity:1">
        <g
           clip-path="url(#clipPath204)"
           id="g202"
           style="fill:#cc2e2e;fill-opacity:1;stroke:none;stroke-width:31.06903648;stroke-miterlimit:4;stroke-dasharray:none;stroke-opacity:1" />
      </g>
      <g
         transform="matrix(0.083207,0,0,-0.083207,339.46,467.13)"
         id="g676"
         style="fill:#cc2e2e;fill-opacity:1;stroke:none;stroke-width:31.06903648;stroke-miterlimit:4;stroke-dasharray:none;stroke-opacity:1">
        <g
           clip-path="url(#clipPath680)"
           id="g678"
           style="fill:#cc2e2e;fill-opacity:1;stroke:none;stroke-width:31.06903648;stroke-miterlimit:4;stroke-dasharray:none;stroke-opacity:1" />
      </g>
      <g
         transform="matrix(0.083207,0,0,-0.083207,339.46,467.13)"
         id="g708"
         style="fill:#cc2e2e;fill-opacity:1;stroke:none;stroke-width:31.06903648;stroke-miterlimit:4;stroke-dasharray:none;stroke-opacity:1">
        <g
           clip-path="url(#clipPath712)"
           id="g710"
           style="fill:#cc2e2e;fill-opacity:1;stroke:none;stroke-width:31.06903648;stroke-miterlimit:4;stroke-dasharray:none;stroke-opacity:1">
          <path
             d="m 3711.8,1621 c 1.65,2.4 3.19,5 4.64,7.76 h 0.61 c 1.34,0 2.67,0.06 3.99,0.19 -2.82,-3.21 -5.89,-5.89 -9.24,-7.95 m -582.76,582.77 c 2.06,3.35 4.74,6.42 7.95,9.24 -0.15,-1.52 -0.21,-3.05 -0.19,-4.6 -2.76,-1.45 -5.36,-2.99 -7.76,-4.64"
             inkscape:connector-curvature="0"
             style="fill:#cc2e2e;fill-opacity:1;stroke:none;stroke-width:31.06903648;stroke-miterlimit:4;stroke-dasharray:none;stroke-opacity:1"
             id="path722" />
        </g>
      </g>
      <g
         transform="matrix(0.083207,0,0,-0.083207,339.46,467.13)"
         id="g1012"
         style="fill:#cc2e2e;fill-opacity:1;stroke:none;stroke-width:31.06903648;stroke-miterlimit:4;stroke-dasharray:none;stroke-opacity:1">
        <g
           clip-path="url(#clipPath1016)"
           id="g1014"
           style="fill:#cc2e2e;fill-opacity:1;stroke:none;stroke-width:31.06903648;stroke-miterlimit:4;stroke-dasharray:none;stroke-opacity:1" />
      </g>
    </g>
  </g>
</svg>
