<?xml version="1.0" encoding="UTF-8" standalone="no"?>
<!-- Created with Inkscape (http://www.inkscape.org/) -->

<svg
   xmlns:dc="http://purl.org/dc/elements/1.1/"
   xmlns:cc="http://creativecommons.org/ns#"
   xmlns:rdf="http://www.w3.org/1999/02/22-rdf-syntax-ns#"
   xmlns:svg="http://www.w3.org/2000/svg"
   xmlns="http://www.w3.org/2000/svg"
   xmlns:sodipodi="http://sodipodi.sourceforge.net/DTD/sodipodi-0.dtd"
   xmlns:inkscape="http://www.inkscape.org/namespaces/inkscape"
   version="1.1"
   id="svg1558"
   width="128"
   height="128"
   viewBox="0 0 128 128"
   sodipodi:docname="autosegicon.svg"
   inkscape:version="0.92.2 (5c3e80d, 2017-08-06)">
  <metadata
     id="metadata1564">
    <rdf:RDF>
      <cc:Work
         rdf:about="">
        <dc:format>image/svg+xml</dc:format>
        <dc:type
           rdf:resource="http://purl.org/dc/dcmitype/StillImage" />
        <dc:title />
      </cc:Work>
    </rdf:RDF>
  </metadata>
  <defs
     id="defs1562">
    <clipPath
       id="clipPath1016">
      <path
         d="m 766.11,3738.8 h -12.726 v 13.47 h 12.726 v -13.47"
         inkscape:connector-curvature="0"
         id="path1018" />
    </clipPath>
    <clipPath
       id="clipPath712">
      <path
         d="m 3711.8,1621 c 1.65,2.4 3.19,5 4.64,7.76 h 0.61 c 1.34,0 2.67,0.06 3.99,0.19 -2.82,-3.21 -5.89,-5.89 -9.24,-7.95 m -582.76,582.77 c 2.06,3.35 4.74,6.42 7.95,9.24 -0.15,-1.52 -0.21,-3.05 -0.19,-4.6 -2.76,-1.45 -5.36,-2.99 -7.76,-4.64"
         inkscape:connector-curvature="0"
         id="path714" />
    </clipPath>
    <clipPath
       id="clipPath680">
      <path
         d="m 3752.3,753.38 h -13.46 v 12.73 l 13.46,-0.007 v -12.72"
         inkscape:connector-curvature="0"
         id="path682" />
    </clipPath>
    <clipPath
       id="clipPath204">
      <path
         d="M 0,4505.7 V 0 h 4505.7 v 4505.7 z"
         inkscape:connector-curvature="0"
         id="path206" />
    </clipPath>
    <clipPath
       id="clipPath178">
      <path
         d="M 0,4505.7 V 0 h 4505.7 v 4505.7 z"
         inkscape:connector-curvature="0"
         id="path180" />
    </clipPath>
    <clipPath
       id="clipPath114">
      <path
         d="m 3217.1,1932.8 c 19.99,128.64 -54.89,140.42 -95.98,231.75 -5.9,13.11 -7.38,25.56 -3.18,36.77 -1.62,-4.35 -2.39,-8.88 -2.39,-13.56 0.01,-7.4 1.97,-15.18 5.58,-23.21 36.39,-80.89 99.29,-99.38 99.3,-191.94 0,-11.94 -1.05,-25.11 -3.33,-39.81"
         inkscape:connector-curvature="0"
         id="path116" />
    </clipPath>
    <clipPath
       id="clipPath98">
      <path
         d="m 3175.4,1839.8 c 20.92,24.68 35.84,55.66 41.66,92.98 -5.8,-37.25 -20.66,-68.2 -41.53,-92.87 -0.04,-0.03 -0.09,-0.08 -0.13,-0.11"
         inkscape:connector-curvature="0"
         id="path100" />
    </clipPath>
  </defs>
  <sodipodi:namedview
     pagecolor="#ffffff"
     bordercolor="#666666"
     borderopacity="1"
     objecttolerance="10"
     gridtolerance="10"
     guidetolerance="10"
     inkscape:pageopacity="0"
     inkscape:pageshadow="2"
     inkscape:window-width="1920"
     inkscape:window-height="1017"
     id="namedview1560"
     showgrid="false"
     inkscape:zoom="2.6074562"
     inkscape:cx="16.672433"
     inkscape:cy="79.023123"
     inkscape:window-x="-8"
     inkscape:window-y="-8"
     inkscape:window-maximized="1"
     inkscape:current-layer="svg1558" />
  <rect
     style="opacity:1;fill:#3799dd;fill-opacity:1;stroke:none;stroke-width:3.9000001;stroke-miterlimit:4;stroke-dasharray:none;stroke-opacity:1"
     id="rect2111"
     width="28.641844"
     height="28.503649"
     x="20.842279"
     y="20.934381" />
  <rect
     style="opacity:1;fill:#3799dd;fill-opacity:1;stroke:none;stroke-width:3.9000001;stroke-miterlimit:4;stroke-dasharray:none;stroke-opacity:1"
     id="rect2111-2"
     width="28.641844"
     height="28.503649"
     x="49.484123"
     y="49.438026" />
  <rect
     style="opacity:1;fill:#3799dd;fill-opacity:1;stroke:none;stroke-width:3.9000001;stroke-miterlimit:4;stroke-dasharray:none;stroke-opacity:1"
     id="rect2111-2-6"
     width="28.641844"
     height="28.503649"
     x="20.842279"
     y="77.941666" />
  <rect
     style="opacity:1;fill:#3799dd;fill-opacity:1;stroke:none;stroke-width:3.9000001;stroke-miterlimit:4;stroke-dasharray:none;stroke-opacity:1"
     id="rect2111-2-6-6-6"
     width="28.641844"
     height="28.503649"
     x="78.125961"
     y="77.941666" />
  <rect
     style="opacity:1;fill:#fc9f41;fill-opacity:1;stroke:none;stroke-width:3.00000024;stroke-miterlimit:4;stroke-dasharray:none;stroke-opacity:1"
     id="rect829"
     width="12.501411"
     height="17.643118"
     x="82.837151"
     y="27.976305" />
  <g
     aria-label="A"
     transform="matrix(0.92478051,0,0,0.92465046,7.2198231,2.0468255)"
     style="font-style:normal;font-variant:normal;font-weight:bold;font-stretch:normal;font-size:79.11456299px;line-height:1.25;font-family:Ebrima;-inkscape-font-specification:'Ebrima Bold';letter-spacing:0px;word-spacing:0px;fill:#ffffff;fill-opacity:1;stroke:#fc9f41;stroke-width:3.24424124;stroke-miterlimit:4;stroke-dasharray:none;stroke-opacity:1"
     id="text824">
    <path
       d="m 116.34186,69.026619 h -13.59781 l -3.940279,-12.32302 h -19.70138 l -3.901646,12.32302 H 61.68019 L 81.845132,13.630973 h 14.79535 z M 95.94514,47.12332 89.996095,28.503584 c -1.55248,-4.823287 -1.013871,-3.423822 -2.201919,-0.154521 L 81.767872,47.12332 Z"
       style="fill:#ffffff;fill-opacity:1;stroke:#fc9f41;stroke-width:3.24424124;stroke-miterlimit:4;stroke-dasharray:none;stroke-opacity:1"
       id="path826"
       inkscape:connector-curvature="0"
       sodipodi:nodetypes="cccccccccccccc" />
  </g>
</svg>
