<?xml version="1.0" encoding="UTF-8" standalone="no"?>
<!-- Created with Inkscape (http://www.inkscape.org/) -->

<svg
   xmlns:dc="http://purl.org/dc/elements/1.1/"
   xmlns:cc="http://creativecommons.org/ns#"
   xmlns:rdf="http://www.w3.org/1999/02/22-rdf-syntax-ns#"
   xmlns:svg="http://www.w3.org/2000/svg"
   xmlns="http://www.w3.org/2000/svg"
   xmlns:sodipodi="http://sodipodi.sourceforge.net/DTD/sodipodi-0.dtd"
   xmlns:inkscape="http://www.inkscape.org/namespaces/inkscape"
   width="128"
   height="128"
   viewBox="0 0 33.866666 33.866668"
   version="1.1"
   id="svg8"
   inkscape:version="0.92.2 (5c3e80d, 2017-08-06)"
   sodipodi:docname="cog.svg">
  <defs
     id="defs2" />
  <sodipodi:namedview
     id="base"
     pagecolor="#ffffff"
     bordercolor="#666666"
     borderopacity="1.0"
     inkscape:pageopacity="0.0"
     inkscape:pageshadow="2"
     inkscape:zoom="0.98994949"
     inkscape:cx="-452.05026"
     inkscape:cy="202.13657"
     inkscape:document-units="mm"
     inkscape:current-layer="layer1"
     showgrid="false"
     units="px"
     inkscape:window-width="1920"
     inkscape:window-height="1017"
     inkscape:window-x="-8"
     inkscape:window-y="-8"
     inkscape:window-maximized="1" />
  <metadata
     id="metadata5">
    <rdf:RDF>
      <cc:Work
         rdf:about="">
        <dc:format>image/svg+xml</dc:format>
        <dc:type
           rdf:resource="http://purl.org/dc/dcmitype/StillImage" />
        <dc:title />
      </cc:Work>
    </rdf:RDF>
  </metadata>
  <g
     inkscape:label="Vrstva 1"
     inkscape:groupmode="layer"
     id="layer1"
     transform="translate(0,-263.13332)">
    <path
       style="opacity:1;fill:#fc9f41;fill-opacity:1;stroke:none;stroke-width:0.20900001;stroke-miterlimit:4;stroke-dasharray:none;stroke-opacity:1"
       d="m 20.215152,266.46291 -2.097665,3.2207 a 10.450039,10.450039 0 0 0 -0.962224,-0.0478 10.450039,10.450039 0 0 0 -1.442449,0.11117 l -2.257152,-3.13477 a 13.97389,13.97389 0 0 0 -1.832299,0.65876 l 0.196252,3.84315 a 10.450039,10.450039 0 0 0 -1.918686,1.45175 l -3.646882,-1.20233 a 13.97389,13.97389 0 0 0 -1.106645,1.60592 l 2.411761,2.98634 a 10.450039,10.450039 0 0 0 -0.684011,2.30721 l -3.661501,1.17222 a 13.97389,13.97389 0 0 0 -0.03234,0.65034 13.97389,13.97389 0 0 0 0.07266,1.29979 l 3.721307,1.00211 a 10.450039,10.450039 0 0 0 0.790335,2.26823 l -2.278416,3.10729 a 13.97389,13.97389 0 0 0 1.190818,1.54301 l 3.589291,-1.37246 a 10.450039,10.450039 0 0 0 1.977608,1.37112 l -0.01644,3.8396 a 13.97389,13.97389 0 0 0 1.866412,0.56396 l 2.097666,-3.2207 a 10.450039,10.450039 0 0 0 0.962665,0.0483 10.450039,10.450039 0 0 0 1.442008,-0.11168 l 2.257149,3.13475 a 13.97389,13.97389 0 0 0 1.83186,-0.65877 l -0.196257,-3.84268 a 10.450039,10.450039 0 0 0 1.919133,-1.45221 l 3.646881,1.20233 a 13.97389,13.97389 0 0 0 1.106647,-1.60546 l -2.411712,-2.98636 a 10.450039,10.450039 0 0 0 0.684011,-2.30764 l 3.661503,-1.17222 a 13.97389,13.97389 0 0 0 0.03234,-0.65035 13.97389,13.97389 0 0 0 -0.07266,-1.29935 l -3.720868,-1.00209 a 10.450039,10.450039 0 0 0 -0.790779,-2.26823 l 2.278414,-3.10729 a 13.97389,13.97389 0 0 0 -1.190818,-1.54301 l -3.58929,1.37244 a 10.450039,10.450039 0 0 0 -1.977606,-1.37156 l 0.01644,-3.83959 a 13.97389,13.97389 0 0 0 -1.866412,-0.56395 z m -3.059889,9.85571 a 3.7668746,3.7668746 0 0 1 3.766494,3.76694 3.7668746,3.7668746 0 0 1 -3.766494,3.76692 3.7668746,3.7668746 0 0 1 -3.766938,-3.76692 3.7668746,3.7668746 0 0 1 3.766938,-3.76694 z"
       id="path820"
       inkscape:connector-curvature="0" />
  </g>
</svg>
