<?xml version="1.0" encoding="UTF-8" standalone="no"?>
<!-- Created with Inkscape (http://www.inkscape.org/) -->

<svg
   xmlns:dc="http://purl.org/dc/elements/1.1/"
   xmlns:cc="http://creativecommons.org/ns#"
   xmlns:rdf="http://www.w3.org/1999/02/22-rdf-syntax-ns#"
   xmlns:svg="http://www.w3.org/2000/svg"
   xmlns="http://www.w3.org/2000/svg"
   xmlns:sodipodi="http://sodipodi.sourceforge.net/DTD/sodipodi-0.dtd"
   xmlns:inkscape="http://www.inkscape.org/namespaces/inkscape"
   width="128"
   height="128"
   viewBox="0 0 33.866666 33.866668"
   version="1.1"
   id="svg8"
   inkscape:version="0.92.2 (5c3e80d, 2017-08-06)"
   sodipodi:docname="Save.svg">
  <defs
     id="defs2" />
  <sodipodi:namedview
     id="base"
     pagecolor="#ffffff"
     bordercolor="#666666"
     borderopacity="1.0"
     inkscape:pageopacity="0.0"
     inkscape:pageshadow="2"
     inkscape:zoom="2.8284272"
     inkscape:cx="-181.6868"
     inkscape:cy="18.812112"
     inkscape:document-units="mm"
     inkscape:current-layer="layer1"
     showgrid="false"
     units="px"
     inkscape:window-width="1920"
     inkscape:window-height="1017"
     inkscape:window-x="-8"
     inkscape:window-y="-8"
     inkscape:window-maximized="1" />
  <metadata
     id="metadata5">
    <rdf:RDF>
      <cc:Work
         rdf:about="">
        <dc:format>image/svg+xml</dc:format>
        <dc:type
           rdf:resource="http://purl.org/dc/dcmitype/StillImage" />
        <dc:title />
      </cc:Work>
    </rdf:RDF>
  </metadata>
  <g
     inkscape:label="Layer 1"
     inkscape:groupmode="layer"
     id="layer1"
     transform="translate(0,-263.13332)">
    <path
       style="opacity:1;fill:#3799dd;fill-opacity:1;stroke:none;stroke-width:0.30483794;stroke-miterlimit:4;stroke-dasharray:none;stroke-opacity:1"
       d="m 17.846275,294.1896 c 0.03028,0 0.05979,-0.002 0.08954,-0.003 h 3.082194 c 0.102619,-2e-5 0.202353,-0.0102 0.299522,-0.0272 h 2.607699 c 0.04317,0 0.08521,-0.003 0.127631,-0.005 h 4.392472 c 1.265964,0 2.285527,-0.97543 2.285527,-2.18725 l 0,-22.43715 c 0,-1.21181 -1.019563,-2.18726 -2.285527,-2.18726 H 5.8257741 c -1.265965,0 -2.285015,0.97545 -2.285015,2.18726 v 16.37785 l 0.0023,0.002 0,2.67644 v 0.0196 l 0.0015,0.002 v 1.81039 l 4.429463,3.77106 z"
       id="rect827-9-7"
       inkscape:connector-curvature="0" />
    <path
       style="opacity:1;fill:#ffffff;fill-opacity:1;stroke:none;stroke-width:0.4713271;stroke-miterlimit:4;stroke-dasharray:none;stroke-opacity:1"
       d="m 25.107983,279.14057 c 0.624876,0 1.127743,-0.71859 1.127743,-1.61155 V 267.34875 H 8.1901721 v 10.18027 c 0,0.89296 0.502868,1.61155 1.1277437,1.61155 z"
       id="rect836"
       inkscape:connector-curvature="0" />
    <path
       style="opacity:1;fill:#dfdfdf;fill-opacity:1;stroke:none;stroke-width:0.36314571;stroke-miterlimit:4;stroke-dasharray:none;stroke-opacity:1"
       d="m 10.99069,284.9661 c -0.474189,0 -0.855788,0.56214 -0.855788,1.26068 v 7.9638 h 13.693852 l 0,-7.9638 c 0,-0.69854 -0.381599,-1.26068 -0.855786,-1.26068 z"
       id="rect836-6"
       inkscape:connector-curvature="0" />
    <rect
       style="opacity:1;fill:#3799dd;fill-opacity:1;stroke:none;stroke-width:0.50389463;stroke-miterlimit:4;stroke-dasharray:none;stroke-opacity:1"
       id="rect888"
       width="4.3319497"
       height="7.7005405"
       x="-16.071959"
       y="-293.21951"
       transform="scale(-1)" />
    <rect
       style="opacity:1;fill:#999999;fill-opacity:1;stroke:none;stroke-width:0.46575475;stroke-miterlimit:4;stroke-dasharray:none;stroke-opacity:1"
       id="rect819"
       width="15.394917"
       height="0.35893622"
       x="-24.879839"
       y="-277.64172"
       transform="scale(-1)" />
    <rect
       style="opacity:1;fill:#999999;fill-opacity:1;stroke:none;stroke-width:0.46575475;stroke-miterlimit:4;stroke-dasharray:none;stroke-opacity:1"
       id="rect819-7"
       width="15.394917"
       height="0.35893622"
       x="-24.879839"
       y="-275.61124"
       transform="scale(-1)" />
    <rect
       style="opacity:1;fill:#999999;fill-opacity:1;stroke:none;stroke-width:0.46575475;stroke-miterlimit:4;stroke-dasharray:none;stroke-opacity:1"
       id="rect819-7-6"
       width="15.394917"
       height="0.35893622"
       x="-24.879841"
       y="-273.58078"
       transform="scale(-1)" />
    <rect
       style="opacity:1;fill:#999999;fill-opacity:1;stroke:none;stroke-width:0.46575475;stroke-miterlimit:4;stroke-dasharray:none;stroke-opacity:1"
       id="rect819-7-8"
       width="15.394917"
       height="0.35893622"
       x="-24.879839"
       y="-271.55029"
       transform="scale(-1)" />
    <rect
       style="opacity:1;fill:#999999;fill-opacity:1;stroke:none;stroke-width:0.46575475;stroke-miterlimit:4;stroke-dasharray:none;stroke-opacity:1"
       id="rect819-7-87"
       width="15.394917"
       height="0.35893622"
       x="-24.879841"
       y="-269.51981"
       transform="scale(-1)" />
  </g>
</svg>
