<?xml version="1.0" encoding="UTF-8" standalone="no"?>
<!-- Created with Inkscape (http://www.inkscape.org/) -->

<svg
   xmlns:dc="http://purl.org/dc/elements/1.1/"
   xmlns:cc="http://creativecommons.org/ns#"
   xmlns:rdf="http://www.w3.org/1999/02/22-rdf-syntax-ns#"
   xmlns:svg="http://www.w3.org/2000/svg"
   xmlns="http://www.w3.org/2000/svg"
   xmlns:sodipodi="http://sodipodi.sourceforge.net/DTD/sodipodi-0.dtd"
   xmlns:inkscape="http://www.inkscape.org/namespaces/inkscape"
   width="128"
   height="128"
   viewBox="0 0 33.866666 33.866668"
   version="1.1"
   id="svg8"
   inkscape:version="0.92.3 (2405546, 2018-03-11)"
   sodipodi:docname="dock_icon_screenshot.svg">
  <defs
     id="defs2" />
  <sodipodi:namedview
     id="base"
     pagecolor="#ffffff"
     bordercolor="#666666"
     borderopacity="1.0"
     inkscape:pageopacity="0.0"
     inkscape:pageshadow="2"
     inkscape:zoom="3.9597979"
     inkscape:cx="121.27095"
     inkscape:cy="98.452113"
     inkscape:document-units="mm"
     inkscape:current-layer="layer1"
     showgrid="false"
     units="px"
     inkscape:window-width="1920"
     inkscape:window-height="1017"
     inkscape:window-x="-8"
     inkscape:window-y="-8"
     inkscape:window-maximized="1" />
  <metadata
     id="metadata5">
    <rdf:RDF>
      <cc:Work
         rdf:about="">
        <dc:format>image/svg+xml</dc:format>
        <dc:type
           rdf:resource="http://purl.org/dc/dcmitype/StillImage" />
        <dc:title />
      </cc:Work>
    </rdf:RDF>
  </metadata>
  <g
     inkscape:label="Layer 1"
     inkscape:groupmode="layer"
     id="layer1"
     transform="translate(0,-263.13332)">
    <path
       style="opacity:1;fill:#000000;fill-opacity:0;stroke:#000000;stroke-width:2;stroke-miterlimit:4;stroke-dasharray:none;stroke-opacity:1"
       d="m 7.0139905,268.28114 c -0.6238651,0 -0.9443311,0.52913 -1.1259778,1.12598 l -0.6497277,2.13429 c -2.0255757,0.13244 -3.6183838,1.8028 -3.6183838,3.86302 v 5.72105 6.91353 c 0,2.59473 1.7283194,4.6839 3.8755774,4.6839 H 28.436869 c 2.147261,0 3.876043,-2.08917 3.876043,-4.6839 v -6.91353 -5.72105 c 0,-2.14728 -1.727854,-3.87604 -3.875112,-3.87604 H 17.762637 l -0.587406,-2.12127 c -0.166421,-0.60126 -0.502116,-1.12598 -1.125978,-1.12598 z m 18.9876785,5.35456 a 0.69502994,0.69502994 0 0 1 0.695306,0.69484 0.69502994,0.69502994 0 0 1 -0.695306,0.69484 0.69502994,0.69502994 0 0 1 -0.694841,-0.69484 0.69502994,0.69502994 0 0 1 0.694841,-0.69484 z m -9.140838,0.27115 a 8.8183864,8.8824797 0 0 1 8.818531,8.88271 8.8183864,8.8824797 0 0 1 -8.818531,8.88225 8.8183864,8.8824797 0 0 1 -8.8180659,-8.88225 8.8183864,8.8824797 0 0 1 8.8180659,-8.88271 z"
       id="rect814-7"
       inkscape:connector-curvature="0" />
    <ellipse
       style="opacity:1;fill:#000000;fill-opacity:0;stroke:none;stroke-width:1.60250723;stroke-miterlimit:4;stroke-dasharray:none;stroke-opacity:1"
       id="path816"
       cx="16.849201"
       cy="283.04364"
       rx="7.2284675"
       ry="7.281878" />
  </g>
</svg>
