<?xml version="1.0" encoding="UTF-8" standalone="no"?>
<!-- Created with Inkscape (http://www.inkscape.org/) -->

<svg
   xmlns:dc="http://purl.org/dc/elements/1.1/"
   xmlns:cc="http://creativecommons.org/ns#"
   xmlns:rdf="http://www.w3.org/1999/02/22-rdf-syntax-ns#"
   xmlns:svg="http://www.w3.org/2000/svg"
   xmlns="http://www.w3.org/2000/svg"
   xmlns:sodipodi="http://sodipodi.sourceforge.net/DTD/sodipodi-0.dtd"
   xmlns:inkscape="http://www.inkscape.org/namespaces/inkscape"
   width="128"
   height="128"
   viewBox="0 0 33.866666 33.866668"
   version="1.1"
   id="svg8"
   inkscape:version="0.92.3 (2405546, 2018-03-11)"
   sodipodi:docname="dock_icon_pin.svg">
  <defs
     id="defs2" />
  <sodipodi:namedview
     id="base"
     pagecolor="#ffffff"
     bordercolor="#666666"
     borderopacity="1.0"
     inkscape:pageopacity="0.0"
     inkscape:pageshadow="2"
     inkscape:zoom="2.8"
     inkscape:cx="-125.2531"
     inkscape:cy="75.228752"
     inkscape:document-units="mm"
     inkscape:current-layer="layer1"
     showgrid="false"
     units="px"
     inkscape:window-width="1920"
     inkscape:window-height="1017"
     inkscape:window-x="-8"
     inkscape:window-y="-8"
     inkscape:window-maximized="1"
     showguides="false" />
  <metadata
     id="metadata5">
    <rdf:RDF>
      <cc:Work
         rdf:about="">
        <dc:format>image/svg+xml</dc:format>
        <dc:type
           rdf:resource="http://purl.org/dc/dcmitype/StillImage" />
        <dc:title />
      </cc:Work>
    </rdf:RDF>
  </metadata>
  <g
     inkscape:label="Layer 1"
     inkscape:groupmode="layer"
     id="layer1"
     transform="translate(0,-263.13332)">
    <path
       style="opacity:1;fill:#000000;fill-opacity:0;stroke:#000000;stroke-width:2;stroke-miterlimit:4;stroke-dasharray:none;stroke-opacity:1"
       d="m 21.92284,267.80054 c -0.173544,-0.17355 -0.453077,-0.17355 -0.626622,0 l -1.756441,1.75644 c -0.173545,0.17354 -0.173545,0.45307 0,0.62662 l 0.824048,0.82405 -7.131039,7.13104 c 0,0 0.04236,0.0123 -0.471642,-0.0433 l -4.8046612,-0.51935 c -0.232421,-0.0251 -0.1982473,0.42793 -0.055849,0.57077 L 19.489514,289.772 c 0.142396,0.14283 0.596497,0.1778 0.570774,-0.0559 l -0.586412,-5.32573 c -0.0063,-0.0569 -0.0059,-0.01 -0.0014,-0.012 l 0.0067,0.007 7.131038,-7.13104 0.752003,0.752 c 0.173545,0.17354 0.452798,0.17327 0.626343,-2.8e-4 l 1.756441,-1.75644 c 0.173545,-0.17354 0.173824,-0.45279 2.79e-4,-0.62634 z"
       id="rect815"
       inkscape:connector-curvature="0" />
    <path
       style="opacity:1;fill:#000000;fill-opacity:0;stroke:#000000;stroke-width:2;stroke-miterlimit:4;stroke-dasharray:none;stroke-opacity:1"
       d="m 11.127009,282.1308 c -0.0095,0.005 -0.02188,0.0172 -0.02816,0.0274 l -5.6875054,9.90177 c 0,0 9.9093584,-5.57939 0.00684,0.008 l 9.9025184,-5.58739 c 0.0064,-0.004 0.01106,-0.0102 0.01755,-0.0171 -1.427256,-1.38713 -2.856408,-2.81598 -4.278155,-4.22411 -0.0044,-0.004 0.0053,-0.0206 0.0218,-0.0362 l 0.116467,-0.11038 z"
       id="rect916"
       inkscape:connector-curvature="0"
       sodipodi:nodetypes="cccccccccc" />
  </g>
</svg>
