<?xml version="1.0" encoding="UTF-8" standalone="no"?>
<!-- Created with Inkscape (http://www.inkscape.org/) -->

<svg
   xmlns:dc="http://purl.org/dc/elements/1.1/"
   xmlns:cc="http://creativecommons.org/ns#"
   xmlns:rdf="http://www.w3.org/1999/02/22-rdf-syntax-ns#"
   xmlns:svg="http://www.w3.org/2000/svg"
   xmlns="http://www.w3.org/2000/svg"
   xmlns:sodipodi="http://sodipodi.sourceforge.net/DTD/sodipodi-0.dtd"
   xmlns:inkscape="http://www.inkscape.org/namespaces/inkscape"
   width="128"
   height="128"
   viewBox="0 0 33.866666 33.866666"
   version="1.1"
   id="svg8"
   inkscape:version="0.92.2 (5c3e80d, 2017-08-06)"
   sodipodi:docname="show_bone_model_menu.svg">
  <defs
     id="defs2" />
  <sodipodi:namedview
     id="base"
     pagecolor="#ffffff"
     bordercolor="#666666"
     borderopacity="1.0"
     inkscape:pageopacity="0.0"
     inkscape:pageshadow="2"
     inkscape:zoom="2.8284271"
     inkscape:cx="53.946636"
     inkscape:cy="52.598858"
     inkscape:document-units="mm"
     inkscape:current-layer="layer1"
     showgrid="false"
     units="px"
     inkscape:window-width="1920"
     inkscape:window-height="1017"
     inkscape:window-x="-8"
     inkscape:window-y="-8"
     inkscape:window-maximized="1" />
  <metadata
     id="metadata5">
    <rdf:RDF>
      <cc:Work
         rdf:about="">
        <dc:format>image/svg+xml</dc:format>
        <dc:type
           rdf:resource="http://purl.org/dc/dcmitype/StillImage" />
        <dc:title />
      </cc:Work>
    </rdf:RDF>
  </metadata>
  <g
     inkscape:label="Vrstva 1"
     inkscape:groupmode="layer"
     id="layer1"
     transform="translate(0,-263.13334)">
    <path
       style="fill:#3799dd;fill-opacity:1;stroke:none;stroke-width:0.26458332px;stroke-linecap:butt;stroke-linejoin:miter;stroke-opacity:1"
       d="m 15.910998,287.43605 c 0,0 5.543407,-3.12978 5.808642,-4.13767 0.265234,-1.00789 0.185663,-2.44016 0.238711,-2.54625 0.05305,-0.10615 1.167032,-0.87528 1.246604,-0.92833 0.07957,-0.0531 1.113985,1.16704 2.201447,0.82223 1.087463,-0.3448 1.777073,-0.92831 0.928323,-3.0502 -0.848752,-2.12188 1.564883,-1.64446 2.015785,-1.22008 0.450898,0.42438 1.379219,0.98138 1.326171,2.12189 -0.05304,1.1405 -1.405744,2.89105 -1.564884,3.07671 -0.159142,0.18567 -0.556991,0.31829 -0.556991,0.79571 0,0.47743 0.132616,2.78496 -1.326176,5.03946 -1.45879,2.2545 -4.42942,2.28103 -4.615084,2.2545 -0.185665,-0.0265 -2.572778,2.36059 -5.384267,2.62582 -2.811488,0.26523 -4.42942,0.84876 -5.251649,0.13262 -0.822227,-0.71613 -1.6975016,-1.72402 -2.2014476,-1.98926 -0.503947,-0.26524 -1.007892,-0.26524 -1.617932,-0.37133 -0.61004,-0.10605 -1.936214,-1.43227 -1.989261,-1.75055 -0.05304,-0.31828 0.265235,-1.88316 1.087463,-2.67888 0.822228,-0.7957 0.636563,-2.46667 0.583516,-2.91757 -0.05304,-0.45091 1.432267,-1.53837 1.777074,-2.01579 0.344805,-0.47743 1.034415,-4.77422 0.530468,-5.54341 -0.503945,-0.76917 -1.22008,-1.24659 -1.246603,-1.5914 -0.02653,-0.34481 0.02653,-0.79571 0.291758,-0.84876 0.265235,-0.0531 1.007892,0.23872 1.432268,0.0796 0.4243756,-0.15914 0.7691806,-0.82223 0.7161336,-1.27312 -0.05304,-0.45091 -0.185664,-1.80361 0.05305,-2.22797 0.238711,-0.42438 2.493206,-1.0079 2.784965,-0.82223 0.291758,0.18566 0.981368,0.53046 0.53047,1.77707 -0.4509,1.2466 -0.397852,1.75055 -0.503947,2.01578 -0.106089,0.26524 -0.981368,0.68962 -1.22008,1.03442 -0.23871,0.3448 -0.530469,0.6896 -0.477422,1.16703 0.05305,0.47742 0.636564,1.56488 0.742657,1.83012 0.106089,0.26523 0.05305,0.66309 0.07957,0.95484 0.02653,0.29176 0.344806,0.23872 0.477424,0.63657 0.132616,0.39785 0.238711,0.53047 0.07957,1.32617 -0.15914,0.7957 -1.405744,1.90969 -1.777072,2.2545 -0.37133,0.3448 -0.848752,1.16703 -1.007893,2.17492 -0.1591406,1.0079 -0.2917586,1.19356 -0.1856636,1.40575 0.1060886,0.21219 0.3448046,0.71613 1.2731266,1.03441 0.928322,0.31828 2.254495,0.68962 2.705394,0.84875 0.4509,0.15915 1.22008,0.58352 1.379221,0.61004 0.159141,0.0265 0.636564,-0.10604 0.636564,-0.10604 z"
       id="path841"
       inkscape:connector-curvature="0" />
  </g>
</svg>
